# xmcd
#
# Track frame offsets:
#	150
#	9647
#	28667
#	39855
#	52022
#	62370
#	75600
#	84070
#	94922
#	112442
#	127617
#	143217
#
# Disc length: 2029 seconds
#
# Revision: 1
# Processed by: cddbd v1.5.1PL2 Copyright (c) Steve Scherf et al.
# Submitted via: EasyCDDAExtractor 5.0.6
#
DISCID=8f07eb0c
DTITLE=Conjunto Farroupilha - Conjunto Farroupilha 35
DYEAR=1994
DGENRE=Regional
TTITLE0=Sal Grosso
TTITLE1=Viagem de Carreta
TTITLE2=Meu Tesouro
TTITLE3=Jardim da Saudade
TTITLE4=Bem Querer
TTITLE5=Canção do Gaúcho
TTITLE6=Tempo de Rancheira
TTITLE7=Minuano
TTITLE8=Gaúcho Largado - Adeus Mariana
TTITLE9=Hino ao Rio Grande
TTITLE10=Amargo
TTITLE11=Fiz a Cama na Varanda
EXTD=
EXTT0=
EXTT1=
EXTT2=
EXTT3=
EXTT4=
EXTT5=
EXTT6=
EXTT7=
EXTT8=
EXTT9=
EXTT10=
EXTT11=
PLAYORDER=
